<?xml version="1.0" encoding="UTF-8"?>
<svg width="74px" height="69px" viewBox="0 0 74 69" version="1.1" xmlns="http://www.w3.org/2000/svg" xmlns:xlink="http://www.w3.org/1999/xlink">
    <!-- Generator: Sketch 50.2 (55047) - http://www.bohemiancoding.com/sketch -->
    <title>Untitled</title>
    <desc>Created with Sketch.</desc>
    <defs></defs>
    <g id="Page-1" stroke="none" stroke-width="1" fill="none" fill-rule="evenodd">
        <g id="oktatás">
            <path d="M40.5,22.5 L57.5,14.5" id="Line" stroke="#000000" stroke-linecap="square"></path>
            <ellipse id="Oval" fill="#000000" cx="16.5" cy="7" rx="6.5" ry="7"></ellipse>
            <path d="M10.7957492,14.5366211 L21.9449601,14.5366211 C23.0495296,14.5366211 23.9449601,15.4320516 23.9449601,16.5366211 C23.9449601,16.5547179 23.9447145,16.5728138 23.9442233,16.5909039 L23.3326141,39.1167828 C23.3032084,40.1998109 22.4167781,41.0625 21.3333509,41.0625 L11.4343395,41.0625 C10.3518418,41.0625 9.46581832,40.2012386 9.43514271,39.1191756 L8.79655242,16.5932967 C8.76525135,15.4891708 9.63494772,14.5687254 10.7390736,14.5374243 C10.7579607,14.5368889 10.7768545,14.5366211 10.7957492,14.5366211 Z" id="Rectangle-7" fill="#000000"></path>
            <path d="M37.1723633,21.3295898 C31.2011462,19.1693413 26.8585355,17.6439506 24.1445313,16.753418 C23.0809183,16.40442 18.8136657,16.40442 11.3427734,16.753418 C6.34336826,15.2615823 3.27663649,21.8232685 2.14257812,36.4384766" id="Line-2" stroke="#000000" stroke-width="4" stroke-linecap="square"></path>
            <path d="M18,30 L16.5,33 L15,30 C15.4116657,25.0325669 15.7042682,21.6614729 15.8778076,19.8867182 C16.1174985,17.4354448 16.2603091,14 16.5,14 C16.8110315,14 16.8265417,15.7591184 17.1375732,19.8867182 C17.2635522,21.5585447 17.5510278,24.9296386 18,30 Z" id="Combined-Shape" fill="#FFFFFF"></path>
            <path d="M12.5373535,36.2770996 L12.5373535,36.2770996 C14.1464037,36.6957269 15.2258893,38.2050895 15.1020254,39.8630849 L13.1862486,65.5069474 C13.081215,66.9128862 11.9098568,68 10.5,68 L10.5,68 C9.1921053,68 8.13184716,66.9397419 8.13184716,65.6318472 C8.13184716,65.5890962 8.1330048,65.5463532 8.1353188,65.5036649 L9.60338552,38.4210538 C9.6735334,37.1269793 10.7794542,36.1347907 12.0735287,36.2049386 C12.2301602,36.2134291 12.3855457,36.2376037 12.5373535,36.2770996 Z" id="Rectangle-5" fill="#000000"></path>
            <path d="M22.2759849,37 L22.2759849,37 C23.7533557,37 24.9510013,38.1976456 24.9510013,39.6750164 C24.9510013,39.7551187 24.9474034,39.8351806 24.9402183,39.9149601 L22.6350951,65.5100775 C22.5081209,66.9199446 21.3264233,68 19.91085,68 L19.91085,68 C18.6137752,68 17.5622883,66.9485131 17.5622883,65.6514383 C17.5622883,65.6025474 17.563815,65.5536685 17.5668661,65.5048729 L19.1665786,39.921053 C19.2692457,38.2791235 20.6308487,37 22.2759849,37 Z" id="Rectangle-5-Copy" fill="#000000" transform="translate(21.256645, 52.500000) scale(-1, 1) translate(-21.256645, -52.500000) "></path>
            <rect id="Rectangle-6" fill="#000000" x="0" y="36" width="4" height="4" rx="2"></rect>
            <rect id="Rectangle-6-Copy" fill="#000000" x="37" y="20" width="4" height="4" rx="2"></rect>
            <rect id="Rectangle-8" fill="#000000" x="50" y="39" width="4" height="23" rx="2"></rect>
            <rect id="Rectangle-4" stroke="#000000" stroke-width="2" x="31" y="7" width="42" height="33" rx="4"></rect>
            <rect id="Rectangle-8-Copy" fill="#000000" x="50" y="1" width="4" height="7" rx="2"></rect>
            <path d="M42.3690793,39.7814964 L43.3870717,39.6190259 C44.2051454,39.4884623 44.974168,40.0457993 45.1047317,40.863873 C45.1380781,41.0728117 45.1268447,41.2864414 45.0717695,41.4907306 L38.074558,67.4453251 C37.9091585,68.0588378 37.2777254,68.4221052 36.6642128,68.2567057 C36.5399833,68.2232141 36.4222515,68.1691216 36.315918,68.0966797 L36.083047,67.9380315 C35.6912381,67.6711037 35.54668,67.5279945 35.4218447,67.3497951 C35.2970094,67.1715956 35.2200731,66.9775014 35.1889175,66.7621686 C35.1577619,66.5468357 35.1650142,66.343551 35.267539,65.880676 L40.7001834,41.3535996 C40.8147229,40.8364813 40.8924193,40.6575059 41.012159,40.4751153 C41.1318987,40.2927247 41.2843316,40.1491326 41.4735429,40.0404908 C41.6627541,39.931849 41.8460472,39.8649718 42.3690793,39.7814964 Z" id="Rectangle-8-Copy-2" fill="#000000"></path>
            <path d="M65.5494917,39.9904972 L67.056524,39.4118851 C67.7754972,39.1358415 68.5821177,39.4949069 68.8581612,40.2138802 C68.964708,40.4913882 68.9797875,40.7956825 68.9011995,41.082365 L61.5642182,67.8470598 C61.3954774,68.4626124 60.7596819,68.8248249 60.1441293,68.656084 C60.0210664,68.6223489 59.9044401,68.5684658 59.7989841,68.4966217 L59.5661131,68.3379736 C59.1743042,68.0710457 59.0297461,67.9279366 58.9049108,67.7497371 C58.7800755,67.5715376 58.7031392,67.3774435 58.6719836,67.1621106 C58.640828,66.9467778 58.6480803,66.7434931 58.7506052,66.280618 L64.2360329,41.5152372 C64.3347014,41.0697731 64.3931354,40.9163944 64.4835596,40.7551451 C64.5739838,40.5938958 64.6883436,40.4611402 64.8344271,40.3478375 C64.9805106,40.2345348 65.1235467,40.154035 65.5494917,39.9904972 Z" id="Rectangle-8-Copy-3" fill="#000000" transform="translate(63.803272, 54.008175) scale(-1, 1) translate(-63.803272, -54.008175) "></path>
        </g>
    </g>
</svg>