<svg width="74px" height="67px" viewBox="0 0 74 67" version="1.1" xmlns="http://www.w3.org/2000/svg" xmlns:xlink="http://www.w3.org/1999/xlink">
    <!-- Generator: Sketch 50.2 (55047) - http://www.bohemiancoding.com/sketch -->
    <title>Untitled</title>
    <desc>Created with Sketch.</desc>
    <defs></defs>
    <g id="Page-1" stroke="none" stroke-width="1" fill="none" fill-rule="evenodd">
        <g id="raktár" fill="#CC3333">
            <rect id="Rectangle" stroke="#CC3333" x="9.5" y="22.5" width="4" height="43" rx="2"></rect>
            <rect id="Rectangle-Copy-2" stroke="#CC3333" transform="translate(20.316121, 16.303786) rotate(53.000000) translate(-20.316121, -16.303786) " x="18.3161211" y="-6.06670534" width="4" height="44.7409836" rx="2"></rect>
            <rect id="Rectangle-Copy-3" stroke="#CC3333" transform="translate(53.769724, 16.760394) scale(-1, 1) rotate(53.000000) translate(-53.769724, -16.760394) " x="51.7697244" y="-5.61009747" width="4" height="44.7409836" rx="2"></rect>
            <rect id="Rectangle-Copy" stroke="#CC3333" x="61.5" y="23.5" width="4" height="42" rx="2"></rect>
            <path d="M28,27 L48,27 L48,46 L28,46 L28,27 Z M36,28 L36,32 L40,32 L40,28 L36,28 Z" id="Combined-Shape"></path>
            <path d="M38,47 L58,47 L58,66 L38,66 L38,47 Z M46,48 L46,52 L50,52 L50,48 L46,48 Z" id="Combined-Shape-Copy"></path>
            <path d="M17,47 L37,47 L37,66 L17,66 L17,47 Z M25,48 L25,52 L29,52 L29,48 L25,48 Z" id="Combined-Shape-Copy-2"></path>
        </g>
    </g>
</svg>