<?xml version="1.0" encoding="UTF-8"?>
<svg width="37px" height="51px" viewBox="0 0 37 51" version="1.1" xmlns="http://www.w3.org/2000/svg" xmlns:xlink="http://www.w3.org/1999/xlink">
    <!-- Generator: Sketch 50.2 (55047) - http://www.bohemiancoding.com/sketch -->
    <title>std_ikonok</title>
    <desc>Created with Sketch.</desc>
    <defs></defs>
    <g id="Page-1" stroke="none" stroke-width="1" fill="none" fill-rule="evenodd" stroke-linecap="square">
        <g id="rendezvenyszervezes" stroke="#000000">
            <path d="M17,18.7081473 C16.8389114,20.8191733 16.4986956,22.3132209 15.9793527,23.1902902 C14.3907848,25.8730725 12.1306321,27.5539324 11.5817799,28.3811384 C7.62730133,34.3411549 6.78502377,34.2528087 6.2265625,36.8995536 C5.57142857,40.0044643 6.13355655,43.1486235 7.91294643,46.3320312" id="Line-29"></path>
            <path d="M4.5,48.5 L35.5,48.5" id="Line-28"></path>
            <path d="M8.14704241,46.5 L31.5,46.5" id="Line-28"></path>
            <path d="M20.5,11.5 C20.3416397,13.8793039 20.0817811,15.490539 19.7204241,16.3337054 C19.3590671,17.1768717 18.6189257,17.8989699 17.5,18.5 C14.0453869,19.0498512 12.3180804,19.3247768 12.3180804,19.3247768 C12.3180804,19.3247768 6.40401786,22.1852679 6.40401786,22.9229911 C6.40401786,23.6607143 0.943080357,19.0379464 0.943080357,17.2114955 C0.943080357,15.3850446 13.984375,6.07142857 9.48046875,0.650111607 C12.7910465,3.34182746 15.8070436,4.47445395 18.5284598,4.04799107 C29.1545759,2.3828125 37.1914062,16.3337054 29.8381696,38.3688616" id="Line-30"></path>
            <path d="M15.6618304,1.1015625 C16.9570105,2.08672137 18.4664971,2.44423625 20.1902902,2.17410714 C30.8164063,0.508928571 38.8532366,14.4598214 31.5,36.4949777" id="Line-30" transform="translate(25.002070, 18.798270) rotate(-2.000000) translate(-25.002070, -18.798270) "></path>
        </g>
    </g>
</svg>