<?xml version="1.0" encoding="UTF-8"?>
<svg width="75px" height="55px" viewBox="0 0 75 55" version="1.1" xmlns="http://www.w3.org/2000/svg" xmlns:xlink="http://www.w3.org/1999/xlink">
    <!-- Generator: Sketch 50.2 (55047) - http://www.bohemiancoding.com/sketch -->
    <title>Untitled</title>
    <desc>Created with Sketch.</desc>
    <defs></defs>
    <g id="Page-1" stroke="none" stroke-width="1" fill="none" fill-rule="evenodd">
        <g id="Standépítés" stroke="#000000">
            <path d="M28.5,4.5 L28.5,6.5" id="Line-9" stroke-linecap="square"></path>
            <path d="M62.5,2.5 L62.5,4.5" id="Line-10" stroke-linecap="square"></path>
            <rect id="Rectangle-10" fill="#D8D8D8" transform="translate(12.500000, 2.000000) rotate(15.000000) translate(-12.500000, -2.000000) " x="10.5" y="1.5" width="4" height="1" rx="0.5"></rect>
            <rect id="Rectangle-10" fill="#D8D8D8" x="26.5" y="3.5" width="4" height="1" rx="0.5"></rect>
            <rect id="Rectangle-10" fill="#D8D8D8" x="44.5" y="3.5" width="4" height="1" rx="0.5"></rect>
            <rect id="Rectangle-10" fill="#D8D8D8" transform="translate(61.500000, 2.000000) rotate(-15.000000) translate(-61.500000, -2.000000) " x="59.5" y="1.5" width="4" height="1" rx="0.5"></rect>
            <path d="M46.5,4.5 L46.5,6.5" id="Line-11" stroke-linecap="square"></path>
            <path d="M20.8533878,35.5 C20.4508355,35.5 20.3120752,35.5081529 20.1670884,35.5346774 C20.0436879,35.5572528 19.9380853,35.5926192 19.825978,35.6489157 C19.69426,35.7150599 19.5785769,35.7921205 19.2572177,36.0345594 L1.85261975,49.1648838 C1.22642035,49.6372993 0.858255555,50.3762326 0.858255555,51.1606445 C0.858255555,52.5413564 1.97754368,53.6606445 3.35825556,53.6606445 L71.2386632,53.6606445 C72.0089422,53.6606445 72.7362148,53.3055615 73.209949,52.6981855 C74.0591095,51.6094745 73.8649153,50.0385192 72.7762042,49.1893587 L55.9378451,36.0559674 C55.6160897,35.8050083 55.4993826,35.7248902 55.365633,35.6559003 C55.251858,35.5972135 55.1441015,35.5601593 55.018295,35.5364612 C54.8704016,35.5086026 54.7291025,35.5 54.3210497,35.5 L45.5371094,35.5 L45.5371094,34.6153972 C45.5371094,34.0000446 45.4781977,33.7108939 45.3290701,33.4320494 C45.2013629,33.1932577 45.0169473,33.0088422 44.7781556,32.881135 C44.4993112,32.7320074 44.2101605,32.6730957 43.5948079,32.6730957 L30.4369304,32.6730957 C29.8215778,32.6730957 29.5324271,32.7320074 29.2535826,32.881135 C29.0147909,33.0088422 28.8303754,33.1932577 28.7026682,33.4320494 C28.5535406,33.7108939 28.4946289,34.0000446 28.4946289,34.6153972 L28.4946289,35.5 L20.8533878,35.5 Z" id="Rectangle-9"></path>
            <path d="M29.5,38.5 L29.5,50.4361148 C29.5,51.1734491 29.55398,51.4529804 29.7080393,51.7410463 C29.8357465,51.979838 30.020162,52.1642535 30.2589537,52.2919607 C30.5470196,52.44602 30.8265509,52.5 31.5638852,52.5 L42.4361148,52.5 C43.1734491,52.5 43.4529804,52.44602 43.7410463,52.2919607 C43.979838,52.1642535 44.1642535,51.979838 44.2919607,51.7410463 C44.44602,51.4529804 44.5,51.1734491 44.5,50.4361148 L44.5,38.5 L29.5,38.5 Z" id="Rectangle-12"></path>
            <rect id="Rectangle-11" x="28.5" y="32.5" width="17" height="6" rx="2"></rect>
            <path d="M19.5,7.5 L19.5,23.5" id="Line-3" stroke-linecap="square"></path>
            <path d="M19.5,26.5 L19.5,35.5" id="Line-4" stroke-linecap="square"></path>
            <path d="M55.5,26.5 L55.5,35.5" id="Line-5" stroke-linecap="square"></path>
            <path d="M55.5,7.5 L55.5,23.5" id="Line-6" stroke-linecap="square"></path>
            <polyline id="Line-8" stroke-linecap="square" points="5.51611328 45.8745117 5.51611328 3.59228516 19.7089844 6.91796875 55.7216797 6.91796875 69.4384766 3.59228516 69.4384766 45.8745117"></polyline>
            <path d="M11.5,4.5 L11.5,1.5" id="Line-7" stroke-linecap="square"></path>
            <path d="M23.5,35.5 L23.5,37.5" id="Line-12" stroke-linecap="square"></path>
            <path d="M50.5,35.5 L50.5,37.5" id="Line-13" stroke-linecap="square"></path>
            <path d="M62.8945312,41.4597168 C58.6315104,38.1532389 56.5,36.5 56.5,36.5 C56.5,36.5 56.5,37.5 56.5,39.5" id="Line-14" stroke-linecap="square"></path>
            <path d="M59.5,39.5 L59.5,41.5" id="Line-15" stroke-linecap="square"></path>
            <path d="M63.5,42.5 L63.5,44.5" id="Line-16" stroke-linecap="square"></path>
            <path d="M66.5,44.5 L66.5,47.5" id="Line-17" stroke-linecap="square"></path>
            <path d="M11.5,42.5 L11.5,44.5" id="Line-19" stroke-linecap="square"></path>
            <path d="M10.6835938,42.5 C13.2278646,40.59139 14.5,39.637085 14.5,39.637085 C14.5,39.637085 14.5,40.59139 14.5,42.5" id="Line-20" stroke-linecap="square"></path>
            <polyline id="Line-21" stroke-linecap="square" points="14.9816895 39.2924805 17.5 37.5 17.5 40.5"></polyline>
            <polyline id="Line-22" stroke-linecap="square" points="20.5 41.5 23.8308105 41.5 27.5 41.5 23.8308105 41.5 11.3588867 53.3811035"></polyline>
            <polyline id="Line-22-Copy" stroke-linecap="square" transform="translate(54.225952, 47.481445) scale(-1, 1) translate(-54.225952, -47.481445) " points="55.1679688 41.470459 58.7827148 41.470459 62.4833984 41.470459 58.7827148 41.470459 45.9685059 53.4924316"></polyline>
            <polyline id="Line-24" stroke-linecap="square" points="49 47 54.3959961 47 61 47"></polyline>
            <path d="M12.5,47.5 L24.5,47.5" id="Line-25" stroke-linecap="square"></path>
        </g>
    </g>
</svg>