<?xml version="1.0" encoding="UTF-8"?>
<svg width="72px" height="45px" viewBox="0 0 72 45" version="1.1" xmlns="http://www.w3.org/2000/svg" xmlns:xlink="http://www.w3.org/1999/xlink">
    <!-- Generator: Sketch 50.2 (55047) - http://www.bohemiancoding.com/sketch -->
    <title>std_ikonok</title>
    <desc>Created with Sketch.</desc>
    <defs></defs>
    <g id="Page-1" stroke="none" stroke-width="1" fill="none" fill-rule="evenodd">
        <g id="szallitas">
            <path d="M65.394847,39.0595703 C65.2414034,34.5698459 62.7443412,31 59,31 C55.2556588,31 52.1979617,34.5698459 52.0092349,39.0595703 L30.6504491,39.0595703 C30.5859973,37.343023 30.1460295,35.7609387 29.4178488,34.4614152 L47.8245083,34.4614152 L47.8245083,6 L61.086455,6 L69.2655939,19.3638839 C69.835347,20.2948026 70.3603272,21.9555487 70.4283562,23.0572292 L70.9889618,32.1358335 C71.5773167,32.4737822 72,33.404622 72,34.5 C72,35.4131869 71.7062307,36.2120181 71.2676075,36.6483009 L71.2933265,37.0648013 C71.3613931,38.1670908 70.5205419,39.0595703 69.4153168,39.0595703 L65.394847,39.0595703 Z M15.2798066,34.4614152 L18.3618511,34.4614152 C17.5729168,35.7609387 17.0813904,37.343023 17.0092349,39.0595703 L16.4372039,39.0595703 C16.3775793,37.343023 15.9699187,35.7609387 15.2798066,34.4614152 Z M4.36185106,34.4614152 C3.5729168,35.7609387 3.08139043,37.343023 3.0092349,39.0595703 L0.0799465698,39.0595703 L0.0799465698,34.4614152 L4.36185106,34.4614152 Z M19.4891039,33 L14.5108961,33 C13.2926109,31.7520837 11.7186354,31 10,31 C8.28136456,31 6.70738911,31.7520837 5.48910387,33 L2.00449605,33 C0.89744345,33 0,32.1002151 0,30.9977147 L0,2.00228533 C0,0.896453677 0.896918893,0 2.00449605,0 L44.995504,0 C46.1025565,0 47,0.899784928 47,2.00228533 L47,30.9977147 C47,32.1035463 46.1030811,33 44.995504,33 L28.5108961,33 C27.2926109,31.7520837 25.7186354,31 24,31 C22.2813646,31 20.7073891,31.7520837 19.4891039,33 Z M4,5.50756198 L4,27.492438 C4,28.3313104 4.67157288,29 5.5,29 C6.33420277,29 7,28.3250415 7,27.492438 L7,5.50756198 C7,4.66868961 6.32842712,4 5.5,4 C4.66579723,4 4,4.67495849 4,5.50756198 Z M10,5.50756198 L10,27.492438 C10,28.3313104 10.6715729,29 11.5,29 C12.3342028,29 13,28.3250415 13,27.492438 L13,5.50756198 C13,4.66868961 12.3284271,4 11.5,4 C10.6657972,4 10,4.67495849 10,5.50756198 Z M16,5.50756198 L16,27.492438 C16,28.3313104 16.6715729,29 17.5,29 C18.3342028,29 19,28.3250415 19,27.492438 L19,5.50756198 C19,4.66868961 18.3284271,4 17.5,4 C16.6657972,4 16,4.67495849 16,5.50756198 Z M22,5.50756198 L22,27.492438 C22,28.3313104 22.6715729,29 23.5,29 C24.3342028,29 25,28.3250415 25,27.492438 L25,5.50756198 C25,4.66868961 24.3284271,4 23.5,4 C22.6657972,4 22,4.67495849 22,5.50756198 Z M40,5.50756198 L40,27.492438 C40,28.3313104 40.6715729,29 41.5,29 C42.3342028,29 43,28.3250415 43,27.492438 L43,5.50756198 C43,4.66868961 42.3284271,4 41.5,4 C40.6657972,4 40,4.67495849 40,5.50756198 Z M34,5.50756198 L34,27.492438 C34,28.3313104 34.6715729,29 35.5,29 C36.3342028,29 37,28.3250415 37,27.492438 L37,5.50756198 C37,4.66868961 36.3284271,4 35.5,4 C34.6657972,4 34,4.67495849 34,5.50756198 Z M28,5.50756198 L28,27.492438 C28,28.3313104 28.6715729,29 29.5,29 C30.3342028,29 31,28.3250415 31,27.492438 L31,5.50756198 C31,4.66868961 30.3284271,4 29.5,4 C28.6657972,4 28,4.67495849 28,5.50756198 Z M50,8 L50,21 L66.8605085,21 C67.9654172,21 68.3835203,20.2448743 67.7946367,19.3138044 L60.6388753,8 L50,8 Z" id="Combined-Shape" fill="#000000"></path>
            <ellipse id="Path-Copy" stroke="#000000" stroke-width="2" cx="9.72745902" cy="38.3935547" rx="4.72745902" ry="5.39355469"></ellipse>
            <ellipse id="Path-Copy-2" stroke="#000000" stroke-width="2" cx="23.727459" cy="38.3935547" rx="4.72745902" ry="5.39355469"></ellipse>
            <ellipse id="Path-Copy-3" stroke="#000000" stroke-width="2" cx="58.727459" cy="38.3935547" rx="4.72745902" ry="5.39355469"></ellipse>
        </g>
    </g>
</svg>