<svg id="svg" version="1.1" width="400" height="85" xmlns="http://www.w3.org/2000/svg" xmlns:xlink="http://www.w3.org/1999/xlink" style="display: block;"><g id="svgg"><path id="path1" d="M46.106 11.845 C 45.864 12.035,45.667 12.305,45.667 12.445 C 45.667 12.585,45.563 12.936,45.435 13.225 C 45.308 13.514,44.964 14.537,44.671 15.500 C 44.378 16.462,44.032 17.553,43.902 17.922 C 43.773 18.292,43.667 18.693,43.667 18.814 C 43.667 18.934,43.565 19.269,43.440 19.558 C 43.316 19.847,43.044 20.646,42.836 21.333 C 42.309 23.077,41.534 25.530,41.064 26.945 C 40.845 27.602,40.666 28.239,40.666 28.361 C 40.665 28.483,40.563 28.778,40.439 29.016 C 40.315 29.253,40.160 29.731,40.095 30.078 C 40.030 30.424,39.913 30.830,39.835 30.979 C 39.757 31.128,39.454 32.037,39.162 33.000 C 38.870 33.962,38.423 35.387,38.167 36.167 C 37.912 36.946,37.539 38.146,37.340 38.833 C 37.140 39.521,36.912 40.233,36.833 40.417 C 36.755 40.600,36.527 41.313,36.327 42.000 C 35.825 43.726,34.997 46.348,34.827 46.750 C 34.750 46.933,34.635 47.343,34.572 47.661 C 34.509 47.979,34.398 48.354,34.324 48.495 C 34.201 48.732,33.276 51.660,32.718 53.583 C 32.585 54.042,32.416 54.532,32.342 54.672 C 32.269 54.813,32.153 55.188,32.084 55.505 C 31.763 56.997,31.280 57.355,31.022 56.292 C 30.928 55.902,30.733 55.152,30.589 54.626 C 29.703 51.385,29.506 50.656,28.333 46.250 C 28.040 45.150,27.694 43.857,27.564 43.376 C 27.433 42.895,27.220 42.107,27.090 41.626 C 26.960 41.144,26.691 40.150,26.492 39.417 C 26.294 38.683,26.068 37.821,25.991 37.500 C 25.914 37.179,25.733 36.486,25.589 35.959 C 25.445 35.432,25.214 34.589,25.077 34.085 C 24.939 33.581,24.714 32.756,24.577 32.252 C 24.439 31.747,24.214 30.922,24.077 30.418 C 23.761 29.259,23.493 28.256,22.830 25.750 C 22.539 24.650,22.198 23.375,22.073 22.917 C 21.623 21.268,21.323 20.153,21.097 19.292 C 20.970 18.811,20.740 17.967,20.585 17.417 C 20.430 16.867,20.231 16.117,20.142 15.750 C 19.343 12.443,19.414 12.500,16.138 12.500 C 12.601 12.500,12.241 12.928,13.225 15.962 C 13.365 16.395,13.642 17.350,13.839 18.083 C 14.036 18.817,14.263 19.642,14.343 19.917 C 14.423 20.192,14.612 20.867,14.762 21.417 C 14.912 21.967,15.137 22.754,15.262 23.167 C 15.387 23.579,15.612 24.367,15.762 24.917 C 15.912 25.467,16.132 26.254,16.252 26.667 C 16.520 27.594,16.897 28.935,17.259 30.250 C 17.411 30.800,17.635 31.587,17.757 32.000 C 17.880 32.412,18.142 33.350,18.339 34.083 C 18.536 34.817,18.763 35.642,18.843 35.917 C 18.923 36.192,19.112 36.867,19.262 37.417 C 19.412 37.967,19.637 38.754,19.762 39.167 C 19.887 39.579,20.112 40.367,20.262 40.917 C 20.412 41.467,20.632 42.254,20.752 42.667 C 21.020 43.594,21.397 44.935,21.759 46.250 C 21.911 46.800,22.132 47.587,22.252 48.000 C 22.636 49.326,23.034 50.757,23.784 53.500 C 23.922 54.004,24.137 54.754,24.262 55.167 C 24.387 55.579,24.612 56.367,24.762 56.917 C 24.912 57.467,25.137 58.254,25.262 58.667 C 25.387 59.079,25.600 59.829,25.736 60.333 C 25.872 60.837,26.140 61.813,26.332 62.500 C 26.524 63.188,26.761 64.050,26.860 64.417 C 26.958 64.783,27.140 65.421,27.264 65.833 C 27.388 66.246,27.600 66.996,27.736 67.500 C 29.058 72.406,29.121 72.500,31.083 72.500 C 32.926 72.500,33.023 72.384,34.085 68.917 C 34.422 67.817,34.756 66.767,34.828 66.583 C 34.899 66.400,35.125 65.688,35.330 65.000 C 35.534 64.313,35.801 63.450,35.923 63.083 C 36.174 62.327,37.155 59.215,38.077 56.250 C 38.419 55.150,38.798 53.950,38.919 53.583 C 39.039 53.217,39.377 52.129,39.668 51.167 C 39.960 50.204,40.259 49.267,40.332 49.083 C 40.406 48.900,40.615 48.262,40.798 47.667 C 40.980 47.071,41.370 45.796,41.665 44.833 C 42.454 42.253,42.705 41.455,42.842 41.083 C 42.911 40.900,43.114 40.262,43.294 39.667 C 43.702 38.322,44.473 35.870,45.313 33.250 C 45.666 32.150,46.127 30.688,46.337 30.000 C 47.436 26.412,47.858 25.481,48.064 26.194 C 48.293 26.989,49.247 30.018,49.420 30.500 C 49.536 30.821,49.761 31.533,49.921 32.083 C 50.080 32.633,50.308 33.346,50.427 33.667 C 50.631 34.217,51.231 36.097,52.608 40.500 C 52.938 41.554,53.303 42.679,53.419 43.000 C 53.535 43.321,53.761 44.033,53.921 44.583 C 54.080 45.133,54.305 45.846,54.420 46.167 C 54.660 46.832,55.860 50.574,56.666 53.167 C 56.966 54.129,57.306 55.179,57.423 55.500 C 57.540 55.821,57.989 57.208,58.421 58.583 C 60.047 63.761,60.208 64.264,60.416 64.833 C 60.534 65.154,60.761 65.867,60.921 66.417 C 61.080 66.967,61.307 67.679,61.425 68.000 C 61.542 68.321,61.845 69.258,62.097 70.083 C 62.731 72.158,63.107 72.500,64.755 72.500 C 66.105 72.500,66.882 72.013,67.098 71.029 C 67.152 70.784,67.305 70.208,67.439 69.750 C 67.572 69.292,67.792 68.523,67.927 68.043 C 68.063 67.562,68.295 66.737,68.444 66.209 C 68.961 64.372,69.137 63.744,69.413 62.750 C 69.565 62.200,69.789 61.413,69.910 61.000 C 70.030 60.587,70.257 59.762,70.414 59.167 C 70.572 58.571,70.796 57.783,70.912 57.417 C 71.029 57.050,71.255 56.262,71.415 55.667 C 71.574 55.071,71.803 54.246,71.924 53.833 C 72.129 53.133,72.321 52.452,72.958 50.167 C 73.099 49.663,73.309 48.913,73.425 48.500 C 73.541 48.087,73.760 47.300,73.913 46.750 C 74.065 46.200,74.289 45.413,74.410 45.000 C 74.530 44.587,74.757 43.762,74.914 43.167 C 75.072 42.571,75.296 41.783,75.412 41.417 C 75.529 41.050,75.755 40.262,75.915 39.667 C 76.074 39.071,76.302 38.246,76.420 37.833 C 76.539 37.421,76.760 36.633,76.913 36.083 C 77.065 35.533,77.287 34.746,77.405 34.333 C 77.523 33.921,77.741 33.152,77.890 32.624 C 78.038 32.096,78.271 31.271,78.406 30.791 C 78.541 30.310,78.759 29.542,78.890 29.083 C 79.020 28.625,79.256 27.762,79.413 27.167 C 79.571 26.571,79.796 25.783,79.912 25.417 C 80.029 25.050,80.255 24.262,80.415 23.667 C 80.574 23.071,80.806 22.246,80.930 21.833 C 81.054 21.421,81.274 20.633,81.419 20.083 C 81.564 19.533,81.801 18.671,81.945 18.167 C 82.089 17.662,82.303 16.912,82.421 16.500 C 82.539 16.087,82.770 15.309,82.935 14.771 C 83.231 13.804,83.230 13.783,82.885 13.187 L 82.535 12.583 79.786 12.538 L 77.036 12.492 76.601 13.009 C 76.362 13.293,76.167 13.644,76.167 13.790 C 76.167 13.935,76.047 14.473,75.901 14.985 C 75.755 15.498,75.534 16.292,75.410 16.750 C 75.287 17.208,75.069 17.986,74.926 18.477 C 74.783 18.969,74.667 19.484,74.667 19.622 C 74.667 19.759,74.558 20.219,74.424 20.644 C 74.291 21.069,74.056 21.904,73.903 22.500 C 73.606 23.648,73.280 24.880,72.911 26.250 C 72.787 26.708,72.562 27.571,72.412 28.167 C 72.261 28.762,72.040 29.625,71.920 30.083 C 71.801 30.542,71.577 31.404,71.422 32.000 C 71.267 32.596,71.032 33.477,70.900 33.957 C 70.408 35.748,70.179 36.611,69.926 37.625 C 69.784 38.198,69.544 39.135,69.395 39.708 C 68.657 42.535,68.679 42.453,67.920 45.250 C 67.795 45.708,67.570 46.571,67.420 47.167 C 67.270 47.762,67.045 48.625,66.920 49.083 C 66.795 49.542,66.575 50.385,66.430 50.958 C 65.944 52.883,65.628 54.078,65.409 54.833 C 65.288 55.246,65.141 55.828,65.082 56.126 C 64.883 57.121,64.167 57.146,64.167 56.159 C 64.167 55.986,64.064 55.598,63.938 55.297 C 63.590 54.462,63.315 53.645,63.165 53.000 C 63.090 52.679,62.848 51.892,62.626 51.250 C 62.405 50.608,61.979 49.296,61.679 48.333 C 61.380 47.371,61.030 46.337,60.901 46.036 C 60.772 45.735,60.667 45.381,60.667 45.250 C 60.667 45.119,60.563 44.765,60.437 44.464 C 60.311 44.163,60.077 43.467,59.919 42.917 C 59.760 42.367,59.536 41.654,59.420 41.333 C 59.305 41.012,58.966 39.962,58.667 39.000 C 57.419 34.979,57.120 34.056,56.899 33.536 C 56.771 33.235,56.667 32.881,56.667 32.750 C 56.667 32.619,56.563 32.265,56.437 31.964 C 56.311 31.663,56.077 30.967,55.919 30.417 C 55.760 29.867,55.536 29.154,55.420 28.833 C 55.305 28.512,54.966 27.462,54.666 26.500 C 53.893 24.013,52.667 20.187,52.423 19.500 C 52.013 18.343,51.667 17.201,51.667 17.003 C 51.667 16.891,51.566 16.564,51.442 16.275 C 51.319 15.986,50.970 14.963,50.667 14.000 C 49.942 11.696,49.727 11.502,47.897 11.501 C 46.781 11.500,46.468 11.560,46.106 11.845 M151.833 11.596 C 151.604 11.635,150.854 11.747,150.167 11.845 C 147.172 12.269,142.748 13.632,141.000 14.669 C 140.862 14.750,140.418 14.984,140.011 15.188 C 139.370 15.510,138.334 16.149,137.276 16.873 C 133.700 19.323,130.705 22.535,128.217 26.592 C 122.706 35.577,122.696 47.622,128.193 57.500 C 134.656 69.112,149.655 75.096,163.000 71.385 C 164.535 70.958,167.640 69.713,168.558 69.156 C 168.847 68.981,169.271 68.756,169.499 68.657 C 169.728 68.558,170.154 68.295,170.446 68.072 C 170.739 67.849,171.025 67.667,171.082 67.667 C 171.248 67.667,173.675 65.756,174.511 64.968 C 176.346 63.237,176.287 62.601,174.122 60.750 C 172.140 59.056,171.707 59.009,170.063 60.311 C 168.544 61.514,166.058 63.099,164.485 63.867 C 162.285 64.941,161.944 65.062,158.917 65.836 C 157.768 66.130,153.003 66.249,151.661 66.018 C 149.153 65.586,148.772 65.499,147.542 65.078 C 146.099 64.584,145.323 64.271,144.583 63.886 C 144.308 63.743,143.783 63.471,143.417 63.282 C 140.649 61.856,134.833 56.262,134.833 55.027 C 134.833 54.943,134.739 54.796,134.625 54.701 C 134.510 54.606,134.165 54.015,133.859 53.389 C 133.552 52.762,133.234 52.120,133.151 51.960 C 131.611 49.007,130.707 43.311,131.175 39.509 C 131.590 36.146,132.669 32.545,133.844 30.609 C 134.019 30.320,134.244 29.896,134.343 29.667 C 134.442 29.439,134.705 29.012,134.928 28.720 C 135.151 28.428,135.333 28.138,135.333 28.077 C 135.333 27.626,138.123 24.547,139.777 23.174 C 141.892 21.417,146.136 19.000,147.105 19.000 C 147.225 19.000,147.568 18.896,147.869 18.769 C 151.339 17.307,158.614 17.573,162.750 19.315 C 165.542 20.490,168.738 22.391,170.435 23.885 C 171.762 25.052,172.279 24.945,174.063 23.128 C 176.447 20.700,176.332 20.141,172.913 17.555 C 168.790 14.435,164.891 12.791,159.333 11.827 C 158.239 11.637,152.603 11.463,151.833 11.596 M249.621 11.674 C 249.156 11.958,248.812 12.866,247.291 17.833 C 247.108 18.429,246.781 19.454,246.563 20.111 C 246.345 20.768,246.167 21.395,246.167 21.503 C 246.167 21.611,246.065 21.936,245.940 22.225 C 245.816 22.514,245.545 23.313,245.338 24.000 C 245.132 24.688,244.796 25.775,244.592 26.417 C 244.388 27.058,244.052 28.146,243.846 28.833 C 243.639 29.521,243.409 30.233,243.335 30.417 C 243.260 30.600,242.960 31.537,242.668 32.500 C 242.377 33.462,242.040 34.550,241.920 34.917 C 241.801 35.283,241.426 36.483,241.088 37.583 C 240.750 38.683,240.410 39.733,240.332 39.917 C 240.254 40.100,240.028 40.813,239.829 41.500 C 239.631 42.188,239.296 43.275,239.086 43.917 C 238.875 44.558,238.540 45.646,238.340 46.333 C 238.140 47.021,237.914 47.733,237.837 47.917 C 237.760 48.100,237.419 49.150,237.079 50.250 C 236.739 51.350,236.257 52.887,236.009 53.667 C 235.761 54.446,235.418 55.552,235.247 56.125 C 235.077 56.698,234.882 57.167,234.815 57.167 C 234.633 57.167,233.974 55.008,233.083 51.500 C 232.955 50.996,232.734 50.152,232.592 49.625 C 232.450 49.098,232.222 48.254,232.087 47.749 C 231.737 46.451,231.421 45.277,231.032 43.833 C 229.601 38.529,229.417 37.845,229.097 36.626 C 228.970 36.144,228.741 35.300,228.587 34.750 C 228.228 33.469,227.877 32.158,227.583 31.000 C 227.455 30.496,227.233 29.652,227.089 29.126 C 226.248 26.051,225.936 24.898,225.523 23.333 C 225.341 22.646,224.991 21.333,224.744 20.417 C 224.058 17.867,223.847 17.078,223.597 16.126 C 222.571 12.220,222.877 12.479,219.367 12.538 L 216.632 12.583 216.290 13.174 C 215.954 13.752,215.953 13.785,216.240 14.757 C 216.402 15.303,216.646 16.162,216.784 16.667 C 216.922 17.171,217.132 17.921,217.252 18.333 C 217.509 19.222,217.879 20.536,218.260 21.917 C 218.570 23.036,218.890 24.176,219.245 25.417 C 219.377 25.875,219.608 26.700,219.760 27.250 C 220.070 28.369,220.390 29.509,220.745 30.750 C 220.877 31.208,221.096 31.996,221.233 32.500 C 221.461 33.338,221.981 35.172,222.344 36.417 C 222.424 36.692,222.604 37.329,222.744 37.833 C 222.884 38.337,223.193 39.425,223.432 40.250 C 223.670 41.075,223.963 42.125,224.082 42.583 C 224.311 43.458,224.698 44.848,225.103 46.250 C 225.374 47.183,225.715 48.401,226.073 49.708 C 226.205 50.190,226.434 50.996,226.583 51.500 C 226.732 52.004,226.956 52.792,227.080 53.250 C 227.350 54.243,227.420 54.492,227.954 56.333 C 228.180 57.112,228.464 58.125,228.586 58.583 C 228.838 59.536,228.893 59.730,229.454 61.667 C 229.680 62.446,229.970 63.477,230.099 63.958 C 230.525 65.549,230.809 66.572,231.083 67.500 C 231.369 68.468,231.680 69.592,232.005 70.833 C 232.321 72.041,232.976 72.500,234.385 72.500 C 236.275 72.500,236.350 72.404,237.589 68.417 C 237.930 67.317,238.379 65.892,238.586 65.250 C 238.794 64.608,239.134 63.521,239.343 62.833 C 239.553 62.146,240.012 60.683,240.365 59.583 C 241.010 57.571,241.177 57.041,242.170 53.833 C 242.467 52.871,242.881 51.558,243.089 50.917 C 243.617 49.289,244.626 46.080,244.923 45.083 C 245.059 44.625,245.510 43.200,245.925 41.917 C 246.340 40.633,246.802 39.171,246.952 38.667 C 247.102 38.162,247.429 37.112,247.679 36.333 C 247.929 35.554,248.485 33.792,248.914 32.417 C 249.343 31.042,249.756 29.729,249.832 29.500 C 249.962 29.107,250.644 26.825,250.766 26.375 C 250.797 26.260,250.975 26.167,251.161 26.167 C 251.348 26.167,251.498 26.260,251.497 26.375 C 251.493 26.577,252.491 29.821,252.920 31.000 C 253.143 31.616,254.042 34.421,255.083 37.750 C 255.426 38.850,255.803 40.012,255.919 40.333 C 256.035 40.654,256.261 41.367,256.421 41.917 C 256.580 42.467,256.805 43.179,256.920 43.500 C 257.166 44.190,257.842 46.304,258.917 49.750 C 259.346 51.125,259.795 52.512,259.914 52.833 C 260.033 53.154,260.261 53.867,260.421 54.417 C 260.580 54.967,260.807 55.679,260.924 56.000 C 261.040 56.321,261.489 57.708,261.921 59.083 C 263.535 64.221,263.707 64.763,263.913 65.333 C 264.028 65.654,264.253 66.367,264.413 66.917 C 264.573 67.467,264.799 68.179,264.915 68.500 C 265.032 68.821,265.296 69.631,265.502 70.300 C 266.059 72.110,266.516 72.500,268.079 72.500 C 269.531 72.500,270.116 72.093,270.476 70.833 C 270.593 70.421,270.788 69.746,270.909 69.333 C 271.030 68.921,271.258 68.096,271.417 67.500 C 271.575 66.904,271.806 66.079,271.930 65.667 C 272.054 65.254,272.279 64.467,272.429 63.917 C 272.580 63.367,272.809 62.542,272.938 62.083 C 273.068 61.625,273.285 60.856,273.420 60.375 C 273.556 59.894,273.790 59.069,273.940 58.542 C 274.276 57.364,274.551 56.390,274.913 55.083 C 275.065 54.533,275.289 53.746,275.410 53.333 C 275.530 52.921,275.758 52.096,275.917 51.500 C 276.075 50.904,276.306 50.079,276.430 49.667 C 276.554 49.254,276.779 48.467,276.929 47.917 C 277.230 46.819,277.545 45.697,277.913 44.417 C 278.484 42.429,278.702 41.655,279.413 39.082 C 279.553 38.579,279.790 37.735,279.940 37.208 C 280.091 36.681,280.309 35.912,280.425 35.500 C 280.541 35.087,280.751 34.337,280.893 33.833 C 281.035 33.329,281.275 32.467,281.427 31.917 C 281.736 30.797,282.057 29.657,282.412 28.417 C 282.543 27.958,282.775 27.133,282.926 26.583 C 283.077 26.033,283.299 25.246,283.418 24.833 C 283.538 24.421,283.752 23.671,283.894 23.167 C 284.322 21.649,284.660 20.463,284.917 19.583 C 285.173 18.705,285.366 18.006,285.768 16.500 C 286.830 12.523,286.813 12.500,282.957 12.500 C 279.679 12.500,279.936 12.266,278.922 16.167 C 278.767 16.762,278.538 17.625,278.413 18.083 C 278.288 18.542,278.059 19.404,277.904 20.000 C 277.443 21.774,277.149 22.869,276.901 23.727 C 276.772 24.173,276.667 24.651,276.667 24.788 C 276.667 24.926,276.560 25.386,276.429 25.811 C 276.182 26.614,275.894 27.656,275.408 29.500 C 274.852 31.613,274.632 32.426,274.401 33.227 C 274.272 33.673,274.167 34.151,274.167 34.288 C 274.167 34.426,274.058 34.886,273.924 35.311 C 273.791 35.736,273.556 36.571,273.403 37.167 C 273.106 38.314,272.780 39.547,272.411 40.917 C 272.287 41.375,272.063 42.237,271.913 42.833 C 271.763 43.429,271.538 44.292,271.413 44.750 C 271.288 45.208,271.063 46.071,270.913 46.667 C 270.763 47.262,270.534 48.144,270.403 48.625 C 270.273 49.106,270.060 49.894,269.930 50.375 C 269.800 50.856,269.568 51.737,269.415 52.333 C 268.756 54.903,268.648 55.296,268.371 56.139 C 268.047 57.123,267.807 57.259,267.641 56.550 C 267.581 56.293,267.439 55.821,267.326 55.500 C 266.803 54.022,266.693 53.687,266.421 52.750 C 266.261 52.200,266.036 51.487,265.922 51.167 C 265.721 50.606,265.352 49.444,264.173 45.667 C 263.872 44.704,263.523 43.670,263.397 43.369 C 263.270 43.068,263.167 42.715,263.167 42.583 C 263.167 42.452,263.063 42.098,262.937 41.797 C 262.811 41.496,262.577 40.800,262.419 40.250 C 262.260 39.700,262.033 38.987,261.914 38.667 C 261.795 38.346,261.344 36.958,260.913 35.583 C 260.482 34.208,259.912 32.432,259.648 31.635 C 259.383 30.838,259.167 30.099,259.167 29.993 C 259.167 29.887,259.066 29.564,258.943 29.275 C 258.819 28.986,258.586 28.300,258.424 27.750 C 258.262 27.200,258.033 26.488,257.914 26.167 C 257.795 25.846,257.347 24.458,256.918 23.083 C 256.490 21.708,255.921 19.934,255.653 19.140 C 255.386 18.346,255.167 17.607,255.167 17.498 C 255.167 17.390,255.065 17.064,254.941 16.775 C 254.817 16.486,254.428 15.355,254.076 14.260 C 253.254 11.700,253.149 11.596,251.334 11.538 C 250.525 11.512,249.790 11.571,249.621 11.674 M314.022 11.770 C 313.679 12.010,313.317 12.696,312.141 15.333 C 311.802 16.094,311.534 16.685,310.782 18.333 C 310.552 18.837,310.214 19.587,310.030 20.000 C 309.847 20.412,309.390 21.411,309.015 22.218 C 308.640 23.026,308.333 23.713,308.333 23.745 C 308.333 23.777,308.063 24.392,307.732 25.110 C 306.925 26.864,306.445 27.917,306.000 28.917 C 305.796 29.375,305.457 30.125,305.247 30.583 C 304.815 31.525,304.204 32.878,303.571 34.292 C 303.335 34.819,303.041 35.475,302.917 35.750 C 302.647 36.351,301.597 38.654,301.169 39.583 C 301.000 39.950,300.699 40.625,300.499 41.083 C 300.299 41.542,299.964 42.292,299.754 42.750 C 299.224 43.908,298.579 45.326,298.068 46.458 C 297.830 46.985,297.463 47.792,297.253 48.250 C 297.043 48.708,296.706 49.458,296.504 49.917 C 296.301 50.375,295.964 51.125,295.754 51.583 C 295.543 52.042,295.204 52.792,295.000 53.250 C 294.796 53.708,294.457 54.458,294.246 54.917 C 294.036 55.375,293.700 56.125,293.500 56.583 C 293.145 57.396,292.899 57.937,291.872 60.167 C 291.597 60.762,291.207 61.625,291.004 62.083 C 290.669 62.842,290.391 63.456,289.495 65.417 C 289.327 65.783,289.006 66.496,288.781 67.000 C 288.556 67.504,288.213 68.269,288.019 68.699 C 287.460 69.942,287.535 70.892,288.228 71.320 C 289.586 72.159,294.167 71.655,294.167 70.667 C 294.167 70.591,294.436 69.942,294.764 69.223 C 295.093 68.505,295.543 67.521,295.764 67.037 C 295.986 66.553,296.167 66.122,296.167 66.079 C 296.167 66.036,296.384 65.532,296.650 64.959 C 297.572 62.969,298.167 61.643,298.167 61.575 C 298.167 61.538,298.435 60.924,298.762 60.212 C 299.751 58.060,299.833 57.871,299.833 57.751 C 299.833 57.687,299.988 57.417,300.178 57.151 L 300.523 56.667 315.259 56.667 L 329.996 56.667 330.415 57.330 C 330.645 57.695,330.833 58.064,330.833 58.150 C 330.833 58.236,330.943 58.519,331.077 58.778 C 331.211 59.038,331.517 59.700,331.758 60.250 C 331.999 60.800,332.340 61.569,332.515 61.958 C 332.690 62.348,332.977 62.985,333.152 63.375 C 333.327 63.765,333.777 64.744,334.152 65.552 C 334.527 66.359,334.833 67.053,334.833 67.093 C 334.833 67.133,335.067 67.672,335.352 68.291 C 337.011 71.892,336.722 71.667,339.682 71.667 C 342.537 71.667,342.935 71.462,342.891 70.009 C 342.877 69.540,342.791 69.065,342.700 68.953 C 342.609 68.842,342.337 68.277,342.095 67.700 C 341.853 67.122,341.389 66.072,341.063 65.366 C 340.738 64.661,340.321 63.746,340.136 63.333 C 339.952 62.921,339.700 62.358,339.576 62.083 C 339.452 61.808,339.153 61.133,338.910 60.583 C 338.363 59.341,337.649 57.753,336.663 55.583 C 336.496 55.217,336.211 54.579,336.028 54.167 C 335.846 53.754,335.502 52.985,335.265 52.458 C 335.028 51.931,334.639 51.069,334.402 50.542 C 334.164 50.015,333.835 49.283,333.670 48.917 C 333.505 48.550,333.137 47.744,332.852 47.125 C 332.567 46.506,332.333 45.962,332.333 45.917 C 332.333 45.872,331.996 45.118,331.583 44.241 C 331.171 43.364,330.833 42.615,330.833 42.577 C 330.833 42.539,330.562 41.924,330.231 41.212 C 329.900 40.500,329.446 39.504,329.222 39.000 C 328.999 38.496,328.714 37.858,328.591 37.583 C 328.467 37.308,328.215 36.746,328.031 36.333 C 327.847 35.921,327.390 34.923,327.015 34.115 C 326.640 33.308,326.333 32.614,326.333 32.575 C 326.333 32.535,325.996 31.785,325.583 30.908 C 325.171 30.031,324.833 29.281,324.833 29.240 C 324.833 29.200,324.600 28.661,324.315 28.042 C 323.697 26.702,323.347 25.926,322.756 24.583 C 321.881 22.596,321.242 21.188,320.358 19.295 C 320.069 18.678,319.833 18.136,319.833 18.090 C 319.833 18.045,319.562 17.424,319.231 16.712 C 318.900 16.000,318.446 15.004,318.222 14.500 C 316.978 11.694,316.797 11.500,315.423 11.500 C 314.757 11.500,314.275 11.593,314.022 11.770 M100.004 12.829 C 99.478 13.355,99.489 12.647,99.537 42.377 L 99.583 70.838 100.083 71.246 C 100.558 71.634,100.698 71.655,102.814 71.661 L 105.044 71.667 105.605 71.071 L 106.167 70.476 106.167 42.025 C 106.167 11.460,106.210 13.172,105.426 12.628 C 104.977 12.316,100.346 12.488,100.004 12.829 M339.577 12.840 C 338.968 13.513,339.154 14.607,340.093 15.880 C 340.546 16.494,341.577 17.916,342.384 19.040 C 345.874 23.902,346.494 24.760,346.638 24.928 C 346.722 25.026,347.150 25.626,347.591 26.261 C 348.032 26.897,348.704 27.829,349.086 28.333 C 349.468 28.837,350.066 29.659,350.415 30.159 C 350.764 30.658,351.114 31.146,351.193 31.242 C 351.272 31.338,351.707 31.942,352.160 32.583 C 352.613 33.225,353.053 33.830,353.137 33.928 C 353.221 34.026,353.652 34.626,354.093 35.261 C 354.535 35.897,355.351 37.031,355.907 37.783 C 357.549 40.004,359.229 42.353,359.542 42.864 C 359.813 43.308,359.833 44.285,359.833 57.017 L 359.833 70.692 360.321 71.179 L 360.808 71.667 363.068 71.667 L 365.328 71.667 365.872 71.180 L 366.417 70.694 366.469 56.831 L 366.521 42.968 367.647 41.442 C 368.267 40.603,369.049 39.524,369.386 39.044 C 369.723 38.565,370.106 38.040,370.238 37.878 C 370.587 37.450,372.724 34.538,374.247 32.417 C 374.971 31.408,375.643 30.495,375.740 30.387 C 375.837 30.278,376.854 28.897,378.000 27.318 C 379.146 25.738,380.949 23.277,382.007 21.848 C 383.989 19.171,386.276 16.012,386.950 15.018 C 387.421 14.325,387.435 13.752,386.999 13.038 L 386.667 12.492 383.716 12.538 L 380.764 12.583 379.967 13.573 C 379.529 14.117,378.867 15.004,378.497 15.543 C 378.127 16.083,377.748 16.612,377.654 16.720 C 377.561 16.828,377.116 17.442,376.667 18.083 C 376.217 18.725,375.769 19.342,375.671 19.455 C 375.574 19.567,375.276 19.980,375.010 20.371 C 374.581 21.004,372.188 24.301,371.630 25.029 C 371.513 25.183,371.304 25.471,371.167 25.669 C 371.029 25.868,370.380 26.764,369.723 27.662 C 369.067 28.560,368.250 29.693,367.907 30.181 C 367.564 30.668,367.216 31.146,367.134 31.242 C 367.052 31.338,366.616 31.942,366.167 32.583 C 365.717 33.225,365.282 33.829,365.199 33.925 C 365.117 34.021,364.767 34.508,364.422 35.008 C 363.815 35.889,363.390 36.333,363.157 36.333 C 363.094 36.333,362.340 35.356,361.480 34.161 C 360.620 32.967,359.086 30.848,358.070 29.453 C 357.055 28.058,355.462 25.867,354.532 24.583 C 353.601 23.300,352.745 22.123,352.628 21.969 C 352.512 21.814,351.742 20.743,350.917 19.588 C 348.679 16.456,346.345 13.299,345.954 12.875 C 345.443 12.320,340.074 12.291,339.577 12.840 M315.819 24.375 C 315.980 24.793,316.616 26.214,317.349 27.792 C 317.615 28.365,317.833 28.867,317.833 28.907 C 317.833 28.947,318.126 29.610,318.483 30.381 C 318.841 31.151,319.416 32.449,319.761 33.266 C 320.107 34.082,320.443 34.825,320.510 34.917 C 320.576 35.008,320.948 35.833,321.336 36.750 C 321.725 37.667,322.333 39.037,322.688 39.795 C 323.043 40.553,323.333 41.208,323.333 41.250 C 323.333 41.292,323.624 41.947,323.979 42.705 C 324.334 43.463,324.942 44.833,325.331 45.750 C 325.719 46.667,326.090 47.492,326.155 47.583 C 326.221 47.675,326.526 48.350,326.833 49.083 C 327.141 49.817,327.463 50.509,327.548 50.623 C 328.089 51.340,328.202 51.333,315.333 51.333 C 301.442 51.333,302.691 51.512,303.511 49.639 C 303.805 48.967,304.226 48.004,304.446 47.500 C 304.666 46.996,304.912 46.463,304.992 46.317 C 305.072 46.170,305.454 45.308,305.840 44.400 C 306.226 43.493,306.833 42.130,307.188 41.372 C 307.543 40.614,307.833 39.963,307.833 39.925 C 307.833 39.857,308.426 38.534,309.350 36.541 C 309.616 35.968,309.833 35.460,309.833 35.413 C 309.833 35.365,310.053 34.859,310.320 34.288 C 311.169 32.480,311.833 31.002,311.833 30.923 C 311.833 30.880,312.091 30.299,312.406 29.631 C 312.721 28.963,313.283 27.710,313.656 26.846 C 314.862 24.050,314.886 24.009,315.296 24.004 C 315.538 24.002,315.727 24.136,315.819 24.375 M188.848 40.646 C 187.412 41.047,187.224 44.568,188.604 45.226 C 189.471 45.640,207.024 45.642,207.891 45.229 C 209.207 44.601,209.169 41.519,207.836 40.809 C 207.239 40.491,189.933 40.342,188.848 40.646 " stroke="none" fill="#000000" fill-rule="evenodd"></path></g></svg>